<?xml version="1.0" encoding="utf-8"?>
<!-- Generator: Adobe Illustrator 16.0.0, SVG Export Plug-In . SVG Version: 6.00 Build 0)  -->
<!DOCTYPE svg PUBLIC "-//W3C//DTD SVG 1.1//EN" "http://www.w3.org/Graphics/SVG/1.1/DTD/svg11.dtd">
<svg version="1.1" id="图层_1" xmlns="http://www.w3.org/2000/svg" xmlns:xlink="http://www.w3.org/1999/xlink" x="0px" y="0px"
	 width="170px" height="40px" viewBox="0 0 170 40" enable-background="new 0 0 170 40" xml:space="preserve">
<rect fill="#4B77BE" width="170" height="40"/>
<g>
	<g>
		<defs>
			<rect id="SVGID_1_" width="170" height="40"/>
		</defs>
		<clipPath id="SVGID_2_">
			<use xlink:href="#SVGID_1_"  overflow="visible"/>
		</clipPath>
		<path clip-path="url(#SVGID_2_)" fill="#F39E32" d="M30.837,23.253c0,0-0.063-15.646-0.065-16.125
			c-0.002-0.478-0.324-1.116-0.964-1.592c-2.881-1.744-5.279-2.373-7.196-2.685c-2.715-0.468-3.671,0.015-4.468,0.337
			c-1.116,0.483-2.23,1.446-3.18,3.366c-0.157,0.639,0.004,1.117,0.485,1.436C15.609,8.148,30.837,23.253,30.837,23.253"/>
	</g>
	<g>
		<defs>
			<rect id="SVGID_3_" width="170" height="40"/>
		</defs>
		<clipPath id="SVGID_4_">
			<use xlink:href="#SVGID_3_"  overflow="visible"/>
		</clipPath>
		<path clip-path="url(#SVGID_4_)" fill="#E84817" d="M33.078,24.521c0,0,2.874-0.013,3.193-0.014
			c0.479-0.002,1.116-0.482,1.273-0.963c0.632-1.6,0.947-2.878,1.101-4.155c0.313-1.598,0.625-3.356-0.021-5.109
			c-0.807-2.232-3.692-5.094-3.692-5.094c-0.641-0.477-1.122-0.954-1.762-1.43c-0.321-0.318-1.117,0.005-1.115,0.484
			c0.002,0.638,0.061,15.006,0.061,15.006C32.595,23.564,32.915,23.884,33.078,24.521"/>
	</g>
	<g>
		<defs>
			<rect id="SVGID_5_" width="170" height="40"/>
		</defs>
		<clipPath id="SVGID_6_">
			<use xlink:href="#SVGID_5_"  overflow="visible"/>
		</clipPath>
		<path clip-path="url(#SVGID_6_)" fill="#6D4F9D" d="M33.081,25.318c-0.158,0.479-0.475,0.961-0.953,1.123l0.029,7.344
			c0.318-0.48,0.795-0.961,1.111-1.602c1.111-1.602,2.063-3.36,3.012-5.44c0.158-0.32-0.324-1.275-0.803-1.273
			C34.836,25.313,33.081,25.318,33.081,25.318"/>
	</g>
	<g>
		<defs>
			<rect id="SVGID_7_" width="170" height="40"/>
		</defs>
		<clipPath id="SVGID_8_">
			<use xlink:href="#SVGID_7_"  overflow="visible"/>
		</clipPath>
		<path clip-path="url(#SVGID_8_)" fill="#5FC2D7" d="M24.349,37.488c0.96,0.476,1.919,0.791,2.557,0.628
			c1.117-0.164,2.55-1.127,3.979-2.89l-0.034-8.461c-0.16,0-0.16,0-0.32-0.158L24.349,37.488z"/>
	</g>
	<g>
		<defs>
			<rect id="SVGID_9_" width="170" height="40"/>
		</defs>
		<clipPath id="SVGID_10_">
			<use xlink:href="#SVGID_9_"  overflow="visible"/>
		</clipPath>
		<path clip-path="url(#SVGID_10_)" fill="#E0E337" d="M15.516,24.592l14.049-0.057c-0.001-0.159-0.001-0.159,0.159-0.319
			c0,0-13.786-13.675-14.267-14.152c-0.641-0.636-1.439-0.473-1.435,0.325c-0.31,2.237-0.14,4.95,0.354,8.62
			C14.703,20.924,15.029,22.679,15.516,24.592"/>
	</g>
	<g>
		<defs>
			<rect id="SVGID_11_" width="170" height="40"/>
		</defs>
		<clipPath id="SVGID_12_">
			<use xlink:href="#SVGID_11_"  overflow="visible"/>
		</clipPath>
		<path clip-path="url(#SVGID_12_)" fill="#53B66F" d="M23.549,37.013l6.341-11.042c-0.16-0.158-0.16-0.318-0.32-0.637l-13.73,0.055
			c0.808,2.553,1.936,4.941,3.381,7.172C20.825,34.629,22.268,36.061,23.549,37.013"/>
	</g>
	<g>
		<defs>
			<rect id="SVGID_13_" width="170" height="40"/>
		</defs>
		<clipPath id="SVGID_14_">
			<use xlink:href="#SVGID_13_"  overflow="visible"/>
		</clipPath>
		<path clip-path="url(#SVGID_14_)" fill="#D6D6D6" d="M49.915,23.305l0.596-0.115c0.093,0.346,0.186,0.711,0.274,1.095h4.743v0.51
			H45.194v-0.51h4.983C50.125,24.05,50.037,23.725,49.915,23.305 M46.365,33.505H45.79V28.65h9.131v3.545
			c0.043,0.806-0.346,1.205-1.166,1.197c-0.386,0.015-0.823,0.021-1.31,0.021c-0.029-0.196-0.068-0.39-0.118-0.58
			c0.351,0.021,0.757,0.033,1.219,0.033c0.311,0.003,0.523-0.048,0.634-0.15c0.114-0.098,0.17-0.28,0.166-0.554v-3.003h-7.98V33.505
			z M46.988,25.695h6.734v2.041h-6.734V25.695z M47.552,27.242h5.607v-1.053h-5.607V27.242z M48.035,30.035h4.641v2.17h-4.641
			V30.035z M48.583,31.723h3.545v-1.197h-3.545V31.723z"/>
	</g>
	<g>
		<defs>
			<rect id="SVGID_15_" width="170" height="40"/>
		</defs>
		<clipPath id="SVGID_16_">
			<use xlink:href="#SVGID_15_"  overflow="visible"/>
		</clipPath>
		<path clip-path="url(#SVGID_16_)" fill="#D6D6D6" d="M56.205,24.063H66.56v0.564h-1.805v7.357c0.033,0.892-0.433,1.34-1.396,1.343
			c-0.183,0.008-0.398,0.013-0.645,0.017c-0.121,0.004-0.259,0.006-0.413,0.006h-0.606c-0.022-0.219-0.055-0.429-0.098-0.629
			c0.212,0.012,0.444,0.021,0.698,0.026c0.122,0,0.253,0.002,0.393,0.006h0.494c0.379,0.004,0.635-0.063,0.769-0.199
			c0.143-0.132,0.213-0.381,0.209-0.745v-7.182h-7.954V24.063z M57.386,26.441h4.464v4.232h-3.884v0.859h-0.58V26.441z
			 M57.966,30.126h3.303v-3.137h-3.303V30.126z"/>
	</g>
	<g>
		<defs>
			<rect id="SVGID_17_" width="170" height="40"/>
		</defs>
		<clipPath id="SVGID_18_">
			<use xlink:href="#SVGID_17_"  overflow="visible"/>
		</clipPath>
		<path clip-path="url(#SVGID_18_)" fill="#D6D6D6" d="M72.903,33.402h-0.59V29.97h-3.39c-0.082,1.293-0.499,2.492-1.251,3.599
			c-0.165-0.135-0.349-0.269-0.553-0.396c0.548-0.795,0.897-1.542,1.047-2.238c0.175-0.691,0.26-1.785,0.252-3.283v-3.817h8.514
			v8.249c0.032,0.885-0.419,1.332-1.354,1.344c-0.207,0.008-0.406,0.012-0.596,0.016c-0.093,0.005-0.191,0.007-0.295,0.007H74.3
			c-0.021-0.208-0.057-0.421-0.108-0.636c0.394,0.021,0.82,0.033,1.279,0.033c0.602,0.021,0.89-0.24,0.864-0.785v-2.088h-3.432
			V33.402z M69.009,27.672c0,0.52-0.014,1.11-0.043,1.771h3.347v-2.267h-3.304V27.672z M69.009,26.65h3.303v-2.268h-3.303V26.65z
			 M76.335,24.385h-3.432v2.268h3.432V24.385z M72.903,29.443h3.432v-2.268h-3.432V29.443z"/>
	</g>
	<g>
		<defs>
			<rect id="SVGID_19_" width="170" height="40"/>
		</defs>
		<clipPath id="SVGID_20_">
			<use xlink:href="#SVGID_19_"  overflow="visible"/>
		</clipPath>
		<path clip-path="url(#SVGID_20_)" fill="#D6D6D6" d="M83.291,23.461l0.462-0.264c0.333,0.455,0.582,0.813,0.746,1.074
			l-0.439,0.252h4.017v0.479h-4.029v0.936h3.54v0.473h-3.54v0.936h3.54v0.473h-3.54v0.945h4.062v0.474h-7.777v0.387h-0.563v-4.007
			c-0.348,0.415-0.75,0.834-1.209,1.257c-0.125-0.187-0.25-0.344-0.376-0.474c1.049-0.869,1.916-1.916,2.599-3.138l0.528,0.222
			c-0.026,0.039-0.062,0.097-0.108,0.172c-0.251,0.391-0.446,0.68-0.586,0.869h3.367C83.823,24.234,83.592,23.88,83.291,23.461
			 M78.548,33.263c-0.068-0.157-0.173-0.342-0.317-0.553c1.823-0.447,3.255-1.069,4.297-1.869h-4.135v-0.493h4.7v-0.759h0.558v0.759
			h4.753v0.493h-4.189c0.978,0.777,2.406,1.371,4.286,1.783c-0.147,0.215-0.252,0.397-0.315,0.548
			c-1.964-0.509-3.475-1.264-4.535-2.267v2.675h-0.558v-2.664C82.004,31.969,80.489,32.751,78.548,33.263 M80.331,25.938h3.158
			v-0.937h-3.158V25.938z M80.331,27.345h3.158v-0.936h-3.158V27.345z M80.331,28.763h3.158v-0.944h-3.158V28.763z"/>
	</g>
	<g>
		<defs>
			<rect id="SVGID_21_" width="170" height="40"/>
		</defs>
		<clipPath id="SVGID_22_">
			<use xlink:href="#SVGID_21_"  overflow="visible"/>
		</clipPath>
		<path clip-path="url(#SVGID_22_)" fill="#D6D6D6" d="M89.414,23.891h4.229v1.978h0.659v0.483h-0.659v2.025h-2.697
			c-0.096,0.473-0.223,0.9-0.375,1.288h3.249v3.674h-0.563v-0.606h-2.3v0.682h-0.56v-3.297c-0.215,0.482-0.547,1.04-0.993,1.67
			c-0.104-0.2-0.218-0.383-0.339-0.548c0.709-0.995,1.152-1.95,1.332-2.861h-0.993v-0.485h1.079
			c0.071-0.496,0.128-1.011,0.166-1.541h-1.51v-0.482h1.532c0.021-0.451,0.035-0.948,0.043-1.493h-1.301L89.414,23.891
			L89.414,23.891z M90.956,32.248h2.3v-2.102h-2.3V32.248z M91.197,26.352c-0.047,0.623-0.105,1.137-0.178,1.541h2.068v-1.541
			H91.197z M93.089,24.374h-1.811c-0.02,0.545-0.038,1.042-0.061,1.493h1.87L93.089,24.374L93.089,24.374z M94.618,25.255h2.53
			c0.477-0.745,0.896-1.442,1.257-2.095l0.536,0.279c-0.285,0.461-0.682,1.065-1.187,1.814h1.681v0.526H97.25v1.954h2.066v0.533
			H97.25v1.985h2.342v0.532H97.25v2.761h-0.575v-2.761h-2.319v-0.532h2.319v-1.985h-1.923v-0.533h1.923V25.78h-2.058L94.618,25.255
			L94.618,25.255z M95.025,23.439l0.464-0.279c0.407,0.563,0.752,1.068,1.03,1.52l-0.494,0.297
			C95.704,24.449,95.37,23.938,95.025,23.439"/>
	</g>
	<g>
		<defs>
			<rect id="SVGID_23_" width="170" height="40"/>
		</defs>
		<clipPath id="SVGID_24_">
			<use xlink:href="#SVGID_23_"  overflow="visible"/>
		</clipPath>
		<path clip-path="url(#SVGID_24_)" fill="#FFFFFF" d="M71.466,10.1c0-0.1,0-0.6-0.3-1.2c-0.4-0.8-1.2-1.3-2.2-1.3h-9.9v0.3v0.9
			v11.3h0.1h1.1h9.1v-1.2h-9.1V8.8h4.4v1.5h-3.4v1.2h3.4v1.6h-3.4v0.3v0.8v2c0,0.7,0.6,1.8,2.1,1.8h4v-1.2h-4.1
			c-0.3,0-0.9-0.1-0.9-0.7v-2h5.8v3.8h1.2v-3.8v-0.8V13h-3.5v-1.5h3.5v-1.2h-3.5V8.8h3.2c0.5,0,0.9,0.2,1.1,0.6
			c0.2,0.3,0.2,0.7,0.2,0.7V20h1.2L71.466,10.1z"/>
	</g>
	<g>
		<defs>
			<rect id="SVGID_25_" width="170" height="40"/>
		</defs>
		<clipPath id="SVGID_26_">
			<use xlink:href="#SVGID_25_"  overflow="visible"/>
		</clipPath>
		<path clip-path="url(#SVGID_26_)" fill="#FFFFFF" d="M57.366,8.8V7.7h-12.5v1.2h5.6V12h-5.6v1.2h5.6c-0.1,0.5-0.2,1.7-0.6,3
			c-0.4,1.3-1.2,2.9-2.4,2.9h-2.6v1.2h2.6c1.9,0,2.9-2,3.5-3.7c0.1-0.2,0.1-0.3,0.2-0.5c0,0.2,0.1,0.3,0.2,0.5
			c0.5,1.7,1.6,3.7,3.5,3.7h2.5v-1.2h-2.6c-1.9,0-2.8-4.1-3-5.8h5.6v-1.4h-5.7V8.8H57.366z"/>
	</g>
	<g>
		<defs>
			<rect id="SVGID_27_" width="170" height="40"/>
		</defs>
		<clipPath id="SVGID_28_">
			<use xlink:href="#SVGID_27_"  overflow="visible"/>
		</clipPath>
		<path clip-path="url(#SVGID_28_)" fill="#FFFFFF" d="M87.166,7.7v1.2h1.7v7c0,0.9,0,1.9-0.2,2.5s-0.4,0.6-0.6,0.6h-0.802v1.2
			h0.802c2,0,2-2.6,2-4.3v-7h9.6V7.7H87.166z"/>
	</g>
	<g>
		<defs>
			<rect id="SVGID_29_" width="170" height="40"/>
		</defs>
		<clipPath id="SVGID_30_">
			<use xlink:href="#SVGID_29_"  overflow="visible"/>
		</clipPath>
		<path clip-path="url(#SVGID_30_)" fill="#FFFFFF" d="M90.966,11.9L90.966,11.9v1.2v4.8c0,0.1,0,0.5,0.3,1c0.4,0.7,1,1.1,1.9,1.1
			h4.4v-1.2h-4.4c-0.9,0-1-0.8-1-1V13h6.3v7h1.2v-7v-1.1h-1.2H90.966z"/>
	</g>
	<g>
		<defs>
			<rect id="SVGID_31_" width="170" height="40"/>
		</defs>
		<clipPath id="SVGID_32_">
			<use xlink:href="#SVGID_31_"  overflow="visible"/>
		</clipPath>
		<rect x="73.066" y="7.7" clip-path="url(#SVGID_32_)" fill="#FFFFFF" width="8.8" height="1.2"/>
	</g>
	<g>
		<defs>
			<rect id="SVGID_33_" width="170" height="40"/>
		</defs>
		<clipPath id="SVGID_34_">
			<use xlink:href="#SVGID_33_"  overflow="visible"/>
		</clipPath>
		<path clip-path="url(#SVGID_34_)" fill="#FFFFFF" d="M84.366,7.7v1.8v0.3h-0.2h-1.4V11h1.4c0.4,0,0.9,0,1.2-0.4
			c0.2-0.3,0.3-0.7,0.3-1.1V7.7H84.366z"/>
	</g>
	<g>
		<defs>
			<rect id="SVGID_35_" width="170" height="40"/>
		</defs>
		<clipPath id="SVGID_36_">
			<use xlink:href="#SVGID_35_"  overflow="visible"/>
		</clipPath>
		<polygon clip-path="url(#SVGID_36_)" fill="#FFFFFF" points="78.066,12.1 76.866,12.1 76.866,12.7 73.066,12.7 73.066,13.8 
			76.866,13.8 76.866,20.1 78.066,20.1 78.066,13.8 81.866,13.8 81.866,12.7 78.066,12.7 		"/>
	</g>
	<g>
		<defs>
			<rect id="SVGID_37_" width="170" height="40"/>
		</defs>
		<clipPath id="SVGID_38_">
			<use xlink:href="#SVGID_37_"  overflow="visible"/>
		</clipPath>
		<path clip-path="url(#SVGID_38_)" fill="#FFFFFF" d="M84.366,14v0.3h-0.2h-1.4v1.2h1.4c0.4,0,0.9,0,1.2-0.4
			c0.2-0.3,0.3-0.7,0.3-1.1v-1.8h-1.3V14z"/>
	</g>
	<g>
		<defs>
			<rect id="SVGID_39_" width="170" height="40"/>
		</defs>
		<clipPath id="SVGID_40_">
			<use xlink:href="#SVGID_39_"  overflow="visible"/>
		</clipPath>
		<path clip-path="url(#SVGID_40_)" fill="#FFFFFF" d="M84.366,18.6v0.3h-0.2h-1.4v1.2h1.4c0.4,0,0.9,0,1.2-0.4
			c0.2-0.3,0.3-0.7,0.3-1.1v-1.8h-1.3V18.6z"/>
	</g>
	<g>
		<defs>
			<rect id="SVGID_41_" width="170" height="40"/>
		</defs>
		<clipPath id="SVGID_42_">
			<use xlink:href="#SVGID_41_"  overflow="visible"/>
		</clipPath>
		<path clip-path="url(#SVGID_42_)" fill="#FFFFFF" d="M80.366,15.1v-0.4h-1.2v0.4c0,1.5,0.1,2.6,0.4,3.4c0.4,1.4,1.3,1.6,1.9,1.6
			h0.4v-1.2h-0.4C80.666,18.9,80.366,17.7,80.366,15.1"/>
	</g>
	<g>
		<defs>
			<rect id="SVGID_43_" width="170" height="40"/>
		</defs>
		<clipPath id="SVGID_44_">
			<use xlink:href="#SVGID_43_"  overflow="visible"/>
		</clipPath>
		<path clip-path="url(#SVGID_44_)" fill="#FFFFFF" d="M74.566,15.1c0,2.6-0.4,3.8-1.1,3.8h-0.4v1.2h0.4c0.6,0,1.5-0.3,1.9-1.6
			c0.2-0.8,0.4-1.8,0.4-3.4v-0.4h-1.2V15.1z"/>
	</g>
	<g>
		<defs>
			<rect id="SVGID_45_" width="170" height="40"/>
		</defs>
		<clipPath id="SVGID_46_">
			<use xlink:href="#SVGID_45_"  overflow="visible"/>
		</clipPath>
		<path clip-path="url(#SVGID_46_)" fill="#FFFFFF" d="M75.566,11.6v-1.2c-1,0-1.1-0.5-1.1-0.8h-1.1
			C73.366,10.2,73.766,11.6,75.566,11.6"/>
	</g>
	<g>
		<defs>
			<rect id="SVGID_47_" width="170" height="40"/>
		</defs>
		<clipPath id="SVGID_48_">
			<use xlink:href="#SVGID_47_"  overflow="visible"/>
		</clipPath>
		<path clip-path="url(#SVGID_48_)" fill="#FFFFFF" d="M78.266,11.6v-1.2c-1,0-1.1-0.5-1.1-0.8h-1.2
			C76.066,10.2,76.466,11.6,78.266,11.6"/>
	</g>
	<g>
		<defs>
			<rect id="SVGID_49_" width="170" height="40"/>
		</defs>
		<clipPath id="SVGID_50_">
			<use xlink:href="#SVGID_49_"  overflow="visible"/>
		</clipPath>
		<path clip-path="url(#SVGID_50_)" fill="#FFFFFF" d="M80.466,9.7c0,0.1,0,0.8-1.1,0.8v1.2c1.8,0,2.3-1.4,2.3-1.9h-1.2V9.7z"/>
	</g>
</g>
</svg>
